HIERARCHY
ROOT Hips
{
    OFFSET 0.000000 0.000000 0.000000
    CHANNELS 6 Xposition Yposition Zposition Zrotation Xrotation Yrotation
        JOINT Chest
        {
            OFFSET -0.000000 31.966684 -0.000000
            CHANNELS 3 Zrotation Xrotation Yrotation
            JOINT Neck
            {
                OFFSET -0.000000 23.973995 0.000000
                CHANNELS 3 Zrotation Xrotation Yrotation
                JOINT Head
                {
                    OFFSET -0.000000 10.633333 0.000000
                    CHANNELS 3 Zrotation Xrotation Yrotation
                    End Site
                    {
                        OFFSET -0.000000 16.433334 0.000000
                    }
                }
            }
            JOINT LeftCollar
            {
                OFFSET -0.000000 23.973995 0.000000
                CHANNELS 3 Zrotation Xrotation Yrotation
                JOINT LeftShoulder
                {
                    OFFSET 19.333332 -0.000000 0.000000
                    CHANNELS 3 Zrotation Xrotation Yrotation
                    JOINT LeftElbow
                    {
                        OFFSET 20.067463 0.000000 0.000000
                        CHANNELS 3 Zrotation Xrotation Yrotation
                        JOINT LeftWrist
                        {
                            OFFSET 23.490957 0.000000 0.000000
                            CHANNELS 3 Zrotation Xrotation Yrotation
                            End Site
                            {
                                OFFSET 0.000000 -14.500000 0.000000
                            }
                        }
                    }
                }
            }
            JOINT RightCollar
            {
                OFFSET -0.000000 23.973995 0.000000
                CHANNELS 3 Zrotation Xrotation Yrotation
                JOINT RightShoulder
                {
                    OFFSET -19.333332 0.000000 0.000000
                    CHANNELS 3 Zrotation Xrotation Yrotation
                    JOINT RightElbow
                    {
                        OFFSET -20.067463 0.000000 0.000000
                        CHANNELS 3 Zrotation Xrotation Yrotation
                        JOINT RightWrist
                        {
                            OFFSET -23.490957 0.000000 0.000000
                            CHANNELS 3 Zrotation Xrotation Yrotation
                            End Site
                            {
                                OFFSET -0.000000 -14.500000 0.000000
                            }
                        }
                    }
                }
            }
        }
    JOINT LeftHip
    {
        OFFSET 11.599999 0.000000 0.000000
        CHANNELS 3 Zrotation Xrotation Yrotation
        JOINT LeftKnee
        {
            OFFSET -0.000000 -35.131119 0.000000
            CHANNELS 3 Zrotation Xrotation Yrotation
            JOINT LeftAnkle
            {
                OFFSET -0.000000 -37.839104 0.000000
                CHANNELS 3 Zrotation Xrotation Yrotation
                End Site
                {
                    OFFSET -0.000000 -4.833333 16.433334
                }
            }
        }
    }
    JOINT RightHip
    {
        OFFSET -11.599999 0.000000 0.000000
        CHANNELS 3 Zrotation Xrotation Yrotation
        JOINT RightKnee
        {
            OFFSET -0.000000 -35.131119 0.000000
            CHANNELS 3 Zrotation Xrotation Yrotation
            JOINT RightAnkle
            {
                OFFSET -0.000000 -37.839104 0.000000
                CHANNELS 3 Zrotation Xrotation Yrotation
                End Site
                {
                    OFFSET -0.000000 -4.833333 16.433334
                }
            }
        }
    }
}
MOTION
Frames:    11
Frame Time:    0.010000
4.807512    70.604210    4.487494    7.141067    -2.936434    -75.989998    6.304124    26.044996    -2.190944    15.119239    -6.331885    15.603998    -25.496168    -5.432370    13.499368    1.893293    -0.235157    -14.108999    7.427307    4.750873    -31.342388    -2.839182    0.827492    -31.489449    123.013657    -8.943726    7.683244    -4.750476    -0.485611    10.831311    10.228243    -14.276233    38.667923    -16.715654    -8.280730    50.611378    -138.017502    14.370054    -32.317173    38.200470    -33.444820    14.034848    -75.994652    49.848820    55.240730    6.237684    -21.179998    40.848480    -38.777279    -39.457611    -22.594326    17.327822    68.071899    -28.239191    17.899761    -15.464973    3.312787    
5.315052    70.071686    5.037186    7.145451    -2.851343    -76.052040    6.409590    26.635954    -1.607099    15.343881    -6.613188    15.205626    -25.599791    -5.348354    13.056993    2.038455    -0.251669    -14.433960    7.262630    4.280536    -30.765167    -2.872395    0.774454    -28.335875    122.273071    -9.774557    7.010826    -5.317393    -0.550819    11.183693    11.598277    -16.609976    39.629982    -17.326027    -8.385901    49.290176    -139.091904    17.040546    -33.812454    39.741615    -34.251312    14.245500    -73.831451    49.968693    55.091545    6.920385    -20.319181    40.564632    -40.295383    -40.105877    -24.041954    17.881451    69.114716    -28.472502    17.816986    -14.995680    3.472520    
5.805757    69.551834    5.633409    7.181524    -2.797765    -75.988686    6.492156    27.116812    -1.079268    15.583187    -6.891901    14.750860    -25.749998    -5.145934    12.581921    2.120136    -0.301864    -14.776888    6.942286    3.809024    -30.250097    -2.867250    0.705319    -25.460209    121.498772    -10.486390    6.265099    -5.813260    -0.609952    11.506869    13.073363    -18.673506    40.763855    -18.025835    -8.510971    48.004089    -139.935562    19.869022    -35.360035    41.016785    -35.132607    14.388059    -71.326279    50.095802    54.624149    6.979308    -19.611507    40.147327    -41.753361    -40.574615    -25.194468    18.581148    69.991257    -28.866758    17.938272    -14.636920    3.532899    
6.283755    69.042503    6.278402    7.257215    -2.769255    -75.817085    6.554306    27.488861    -0.591498    15.834120    -7.203496    14.248569    -25.942545    -4.796664    12.085546    2.180677    -0.282565    -15.123013    6.421712    3.213328    -29.775787    -2.918556    0.656464    -22.954243    120.771614    -11.078971    5.424677    -6.247440    -0.664520    11.802870    14.656678    -20.490221    42.061714    -18.774385    -8.634230    46.787266    -140.524734    22.779009    -36.935345    42.024448    -36.092918    14.489074    -68.568565    50.241890    53.820400    6.406309    -19.028263    39.636345    -43.151707    -40.903454    -26.067516    19.402782    70.698250    -29.409821    18.264574    -14.386624    3.497314    
6.749965    68.541267    6.973773    7.366219    -2.759138    -75.558197    6.599303    27.767418    -0.118156    16.091488    -7.579581    13.707106    -26.173061    -4.277469    11.577924    2.205306    -0.309807    -15.460526    5.759511    2.588934    -29.337822    -2.826041    0.567033    -20.868010    120.113503    -11.417699    4.750176    -6.634846    -0.701206    12.071927    16.347773    -22.097841    43.515717    -19.510696    -8.733208    45.668106    -140.862000    25.699045    -38.503860    42.773022    -37.115124    14.571000    -65.679436    50.427883    52.684448    5.231237    -18.561106    39.094112    -44.495304    -41.126778    -26.708912    20.263668    71.254707    -30.033115    18.781187    -14.221313    3.373380    
7.202471    68.045914    7.720374    7.491161    -2.762172    -75.235420    6.629009    27.977043    0.373940    16.344728    -8.041542    13.131963    -26.435860    -3.577554    11.066913    2.224595    -0.315200    -15.781364    4.916354    1.868006    -28.934271    -2.733423    0.486124    -19.256380    119.593285    -11.551163    4.170463    -6.984956    -0.748235    12.315971    18.124319    -23.497578    45.087460    -20.239668    -8.825470    44.665794    -140.918945    28.598600    -40.058517    43.281040    -38.165852    14.648983    -62.831345    50.679607    51.275181    3.537756    -18.243181    38.585529    -45.787792    -41.269997    -27.183512    21.032356    71.695076    -30.615372    19.461876    -14.108294    3.169464    
7.637328    67.554840    8.517887    7.608394    -2.775573    -74.872902    6.642529    28.145266    0.921803    16.576410    -8.589603    12.526520    -26.721031    -2.706795    10.556143    2.245359    -0.292033    -16.082401    3.931932    1.056104    -28.564465    -2.596499    0.388632    -18.138275    119.223267    -11.457808    3.787884    -7.316821    -0.792737    12.546825    19.986963    -24.725929    46.743423    -20.892977    -8.878082    43.793941    -140.735123    31.441435    -41.567963    43.576603    -39.201523    14.730229    -60.236713    51.020306    49.706318    1.470096    -18.131021    38.159027    -47.027134    -41.349442    -27.555193    21.557497    72.060783    -31.008324    20.274389    -14.015946    2.894533    
8.049425    67.067390    9.364360    7.693079    -2.799737    -74.493980    6.637000    28.299540    1.562903    16.766685    -9.197602    11.893190    -27.015114    -1.701720    10.045742    2.243458    -0.320616    -16.362867    2.864870    0.264244    -28.230791    -2.339079    0.352310    -17.518064    118.988350    -11.073977    3.800740    -7.640213    -0.845148    12.790704    21.908697    -25.795805    48.422604    -21.476978    -8.916773    43.051655    -140.306671    34.222977    -43.028858    43.695724    -40.175381    14.816264    -58.114311    51.463745    48.118084    -0.773453    -18.267605    37.842434    -48.204582    -41.374477    -27.870014    21.707329    72.390762    -31.075108    21.184456    -13.920015    2.557076    
8.433262    66.584167    10.255733    7.722572    -2.837453    -74.119141    6.613763    28.462727    2.329041    16.912214    -9.800596    11.235800    -27.315151    -0.632499    9.535584    2.232970    -0.338143    -16.621296    1.712999    -0.523321    -27.922977    -2.108954    0.315893    -17.381031    118.933876    -10.545786    4.043236    -7.954331    -0.888637    13.099838    23.861088    -26.732706    50.070084    -21.977421    -8.933457    42.419353    -139.642838    36.937332    -44.437057    43.680317    -41.044823    14.907200    -56.655006    52.009975    46.652626    -2.961488    -18.656790    37.646599    -49.304329    -41.349472    -28.144924    21.402475    72.712502    -30.722183    22.157057    -13.807358    2.159661    
8.783916    66.107384    11.185715    7.679423    -2.892723    -73.761871    6.570750    28.688801    3.240318    16.889534    -10.585938    10.538479    -27.508797    0.596011    9.017725    2.252078    -0.308109    -16.854301    0.482245    -1.382181    -27.738485    -1.910995    0.282674    -17.694910    119.019028    -9.894694    4.537482    -8.318141    -0.953704    13.320015    25.880444    -27.528275    51.726120    -22.440619    -8.960910    41.870010    -138.737946    39.615673    -45.799995    43.572491    -41.780064    14.999836    -56.001804    52.641029    45.450188    -4.862993    -19.261217    37.570229    -50.307159    -41.273945    -28.367693    20.634134    73.036751    -29.917385    23.156687    -13.676702    1.694683    
9.097987    65.641304    12.145935    7.554504    -2.969158    -73.426025    6.494970    28.954969    4.312193    16.839890    -11.235965    9.827349    -27.716938    1.750422    8.496269    2.231552    -0.331098    -17.058887    -0.705927    -2.086225    -27.566454    -1.656908    0.250783    -18.427591    119.218880    -9.058107    5.426891    -8.623016    -1.067622    13.695910    27.820843    -28.139349    53.215340    -22.916435    -9.018591    41.380470    -137.591232    42.289112    -47.122726    43.407761    -42.369671    15.086603    -56.235489    53.319485    44.645607    -6.285376    -20.016062    37.604778    -51.194843    -41.144001    -28.504827    19.467592    73.358063    -28.697939    24.146658    -13.536241    1.144580    
